<svg width="970" height="970" viewBox="0 0 970 970" fill="none" xmlns="http://www.w3.org/2000/svg">
<g clip-path="url(#clip0_2204_68)">
<path fill-rule="evenodd" clip-rule="evenodd" d="M53.116 497.863C70.214 498.538 81.611 498.084 81.611 517.866C81.611 540.828 73.176 539.466 53.116 539.92V497.863ZM53.116 430.788C67.252 430.788 78.875 430.106 78.875 446.929C78.875 467.166 70.672 466.03 53.116 467.166V430.788ZM69.529 570.619C102.126 570.619 121.729 555.833 121.729 521.28C121.729 500.135 117.854 491.036 99.617 480.58V480.126C113.522 472.624 118.994 459.208 118.994 444.204C118.994 409.871 95.288 400.092 64.97 400.092H13V570.619H69.529Z" fill="#E2001A"/>
<path d="M232.872 570.619V536.506H178.392V499.681H228.543V465.575H178.392V434.198H230.135V400.091H138.273V570.619H232.872Z" fill="#E2001A"/>
<path d="M357.405 459.662V445.338C357.405 410.55 336.888 396 302.696 396C265.996 396 248.902 413.28 248.902 450.339V520.371C248.902 555.159 263.261 574.708 300.19 574.708C341.221 574.708 358.088 554.251 358.088 524.915V504.003H317.97V519.463C317.97 529.925 316.831 544.023 303.154 544.023C292.668 544.023 288.795 538.337 288.795 528.784L289.022 444.431C289.022 433.287 291.981 426.47 304.52 426.696C312.042 426.696 317.288 434.199 317.288 448.75V459.663L357.405 459.662Z" fill="#E2001A"/>
<path d="M414.979 570.619V528.562L423.867 511.272L445.979 570.619H488.375L449.626 475.349L486.098 400.091H445.067L415.434 468.304H414.979V400.091H374.86V570.619H414.979Z" fill="#E2001A"/>
<path d="M539.113 570.619V499.681H566.923V570.619H607.04V400.091H566.923V465.575H539.113V400.091H498.998V570.619H539.113Z" fill="#E2001A"/>
<path fill-rule="evenodd" clip-rule="evenodd" d="M692.197 519.683C692.197 529.457 691.289 544.022 678.295 544.022C665.302 544.022 663.705 529.458 663.705 519.683V449.657C663.705 439.198 665.302 426.695 678.068 426.695C691.289 426.695 692.197 439.198 692.197 449.657V519.683ZM732.32 446.928C732.32 414.189 713.395 396 678.295 396C643.19 396 623.583 414.189 623.583 446.928V516.282C623.583 554.703 637.72 574.707 678.295 574.707C718.865 574.707 732.32 554.703 732.32 516.282V446.928Z" fill="#E2001A"/>
<path d="M790.576 570.619V498.538H840.499V464.435H790.576V434.198H844.828V400.091H750.459V570.619H790.576Z" fill="#E2001A"/>
<path d="M902.797 570.619V498.538H952.72V464.435H902.797V434.198H957.049V400.091H862.681V570.619H902.797Z" fill="#E2001A"/>
</g>
<defs>
<clipPath id="clip0_2204_68">
<rect width="944.049" height="178.708" fill="white" transform="translate(13 396)"/>
</clipPath>
</defs>
</svg>
