<svg width="114" height="114" viewBox="0 0 114 114" fill="none" xmlns="http://www.w3.org/2000/svg">
<g clip-path="url(#clip0_2204_2)">
<path fill-rule="evenodd" clip-rule="evenodd" d="M99.7231 45.3942C100.925 51.2327 100.811 56.9942 99.8193 62.5226C98.8143 68.1315 96.7716 73.4353 93.8684 78.2332C92.7117 80.1465 91.4337 81.985 90.0305 83.7343C88.632 85.4669 87.1208 87.1224 85.488 88.6646C80.6881 93.2036 74.8724 96.818 68.1245 98.8716C62.7839 100.548 57.3778 101.176 52.1065 100.824C46.5556 100.447 41.1864 99.0391 36.2333 96.7222L35.7499 97.6496C40.6831 100.471 46.1316 102.363 51.8435 103.226C57.4409 104.074 63.2681 103.901 69.1238 102.601C76.7212 100.826 83.4872 97.3481 89.0232 92.5812C90.9396 90.9323 92.695 89.1117 94.2801 87.168C95.8699 85.2076 97.2918 83.1158 98.5054 80.9111C101.513 75.456 103.431 69.38 103.974 63.0741C104.491 57.0819 103.752 50.9122 101.74 44.8537L99.7231 45.3942Z" fill="#0090DD"/>
<path fill-rule="evenodd" clip-rule="evenodd" d="M22.9701 85.8072C20.7597 83.3844 18.7834 80.7072 17.1443 77.7708C15.547 74.9076 14.2745 71.8192 13.3264 68.5442C12.9631 66.9077 12.6839 65.2871 12.5206 63.6585C11.8541 56.9938 12.933 50.5212 15.0526 44.4909C16.1889 41.2558 17.7019 38.1959 19.435 35.2612C21.7357 31.3613 24.4684 27.7137 27.7774 24.5562C32.6443 19.9149 38.5491 16.2153 45.4103 14.1007C50.995 12.3817 56.6535 11.748 62.1423 12.2565C65.955 12.6082 69.6946 13.4397 73.2016 14.8322C77.1704 16.4079 80.8262 18.6964 84.1179 21.4125C87.3541 24.082 90.1733 27.2622 92.5473 30.7995C92.8593 31.2683 93.0671 31.8035 93.4548 32.2136C93.7537 32.5248 94.098 32.6473 94.4492 32.8984L95.8684 31.9964C95.7822 31.5515 95.7891 31.1737 95.6032 30.7632C95.3586 30.2227 94.8963 29.8173 94.5294 29.3555C90.6528 24.4793 85.8634 20.5228 80.5181 17.5438C78.2409 16.2744 75.8598 15.2016 73.4212 14.2746C70.7284 13.247 67.9587 12.4012 65.1104 11.8065C58.6035 10.4506 51.7329 10.3428 44.8272 11.9246C37.341 13.6391 30.6658 17.0235 25.1973 21.6956C21.3941 24.9472 18.1155 28.7793 15.677 33.0922C13.8469 36.3291 12.5078 39.8409 11.6176 43.4703C10.0163 50.0061 10.0036 56.9218 11.4455 63.8236C11.7876 65.4581 12.1853 67.0855 12.698 68.7126C13.5302 72.0877 14.7353 75.2709 16.2095 78.2591C17.7427 81.3697 19.572 84.2627 21.6921 86.9014L22.9701 85.8072Z" fill="#0090DD"/>
<path d="M91.8046 36.6782C91.2401 40.3763 93.8195 43.885 97.5176 44.4495C99.4695 44.7474 101.365 44.1709 102.807 43.0181C104.096 41.9834 105.022 40.486 105.289 38.7364C105.853 35.0383 103.274 31.5296 99.5759 30.9651C95.8778 30.4006 92.369 32.9801 91.8046 36.6782Z" stroke="#0090DD" stroke-width="3.58064" stroke-linecap="round" stroke-linejoin="round"/>
<path fill-rule="evenodd" clip-rule="evenodd" d="M83.8752 51.7097C83.8752 51.7097 85.0673 50.5982 86.5538 49.1392C89.1659 46.573 92.6681 42.9866 92.6681 42.9866L91.5194 41.6407C91.5194 41.6407 87.431 44.5445 84.486 46.7204C82.8166 47.9642 81.5319 48.9689 81.5319 48.9689L83.8752 51.7097Z" fill="#0090DD"/>
<path d="M50.7906 84.2212H76.5952C78.0371 84.2212 79.205 83.0533 79.205 81.6114V55.6883C79.205 54.2463 78.0371 53.0785 76.5952 53.0785H38.2152C36.7733 53.0785 35.6055 54.2463 35.6055 55.6883V71.0105" stroke="#22B638" stroke-width="5.88595"/>
<path d="M44.9482 53.0785V40.6214C44.9482 33.7887 50.5726 28.1643 57.4052 28.1643C64.2379 28.1643 69.8622 33.7887 69.8622 40.6214V53.0785" stroke="#22B638" stroke-width="5.88595" stroke-linecap="round" stroke-linejoin="round"/>
<path d="M42.8901 88.6021C43.1279 86.7915 42.8905 85.0211 42.2748 83.417C40.9114 79.8566 37.6796 77.115 33.6654 76.5877C27.8406 75.8226 22.4161 79.9876 21.6511 85.8124C20.886 91.6373 25.051 97.0618 30.8758 97.8269C36.7006 98.5919 42.125 94.4269 42.8901 88.6021Z" stroke="#0090DD" stroke-width="5.24827" stroke-linecap="round" stroke-linejoin="round"/>
<path fill-rule="evenodd" clip-rule="evenodd" d="M54.5469 67.3974C54.5469 67.3974 47.9731 71.3166 43.2519 74.3656C40.5784 76.0908 38.5563 77.5398 38.5563 77.5398L42.7479 82.8964C42.7479 82.8964 44.6334 81.2756 46.9537 79.098C51.0472 75.2475 56.4409 69.8123 56.4409 69.8123L54.5469 67.3974Z" fill="#0090DD"/>
</g>
<defs>
<clipPath id="clip0_2204_2">
<rect width="114" height="114" fill="white"/>
</clipPath>
</defs>
</svg>
