<svg width="400" height="404" viewBox="0 0 400 404" fill="none" xmlns="http://www.w3.org/2000/svg">
<g clip-path="url(#clip0_2205_2)">
<path d="M116.48 126.48L274.98 9.07954C277.28 7.37954 276.08 3.77954 273.28 3.77954H143.28C128.28 3.77954 113.78 9.77954 103.18 20.3795L20.3795 103.08C9.77954 113.78 3.77954 128.18 3.77954 143.28V260.28C3.77954 275.38 9.77954 289.78 20.3795 300.48L103.08 383.18C113.78 393.78 128.28 399.78 143.28 399.78H255.78C258.88 399.78 259.88 395.58 256.98 394.18L33.4795 288.78C24.1795 284.38 18.1795 274.98 18.1795 264.68V208.58C18.1795 202.68 20.9795 197.18 25.6795 193.68L57.8795 169.78V126.38H116.48V126.48Z" fill="url(#paint0_linear_2205_2)"/>
<path d="M270.579 171.679L255.279 213.279H285.179L270.579 171.679ZM141.979 173.379C141.979 160.079 132.879 158.179 123.279 158.179H103.979V189.579H122.579C132.379 189.479 141.979 188.179 141.979 173.379Z" fill="#CD163F"/>
<path d="M385.38 105.38L308.38 28.3795C304.08 24.0795 297.28 23.4795 292.18 26.9795L143.98 126.78C172.08 128.58 189.08 139.88 189.08 165.88C189.08 188.48 176.88 202.58 156.18 205.08V205.48C165.78 207.28 172.18 211.68 176.88 217.68C178.58 219.78 179.68 222.28 180.28 224.78L191.98 260.28L242.38 134.08C244.18 129.68 248.48 126.78 253.18 126.78H297.48L356.38 274.18H319.98C312.58 274.18 305.68 269.48 302.58 262.48L296.88 246.38H243.38L232.98 274.18H153.08C148.78 274.18 145.18 271.08 144.48 266.68L131.18 228.08C129.38 221.48 122.78 220.38 116.28 220.38H103.38V274.079H57.8795V184.68L30.6795 202.98C28.1795 204.68 26.7795 207.48 26.7795 210.48V267.38C26.7795 271.08 28.9795 274.38 32.2795 275.78L288.78 383.18C293.58 385.28 299.08 384.179 302.78 380.579L385.38 298.28C394.68 289.08 399.88 276.48 399.88 263.38V140.18C399.88 127.08 394.68 114.58 385.38 105.38Z" fill="#CD163F"/>
</g>
<defs>
<linearGradient id="paint0_linear_2205_2" x1="71.1866" y1="366.928" x2="279.14" y2="6.74443" gradientUnits="userSpaceOnUse">
<stop offset="0.28" stop-color="#CD163F"/>
<stop offset="0.9" stop-color="#F58025"/>
</linearGradient>
<clipPath id="clip0_2205_2">
<rect width="400" height="404" fill="white"/>
</clipPath>
</defs>
</svg>
