<svg width="794" height="794" viewBox="0 0 794 794" fill="none" xmlns="http://www.w3.org/2000/svg">
<path fill-rule="evenodd" clip-rule="evenodd" d="M756.363 342.105V364.136C744.95 359.827 734.788 357.649 725.894 357.649C720.626 357.649 716.431 358.624 713.277 360.51C710.123 362.412 708.513 364.754 708.513 367.518C708.513 371.192 712.074 374.46 719.244 377.387L739.958 387.467C756.705 395.45 765.013 406.051 765.013 419.367C765.013 430.439 760.607 439.267 751.713 445.803C742.884 452.405 730.999 455.672 716.204 455.672C709.375 455.672 703.246 455.38 697.799 454.762C692.353 454.177 686.093 452.974 679.15 451.25V428.195C691.881 432.504 703.473 434.682 713.911 434.682C726.366 434.682 732.56 431.073 732.56 423.789C732.56 420.163 730.024 417.237 724.87 414.944L701.864 405.14C693.377 401.303 687.068 396.653 682.938 391.142C678.874 385.581 676.809 379.208 676.809 371.924C676.809 361.729 681.101 353.519 689.588 347.275C698.14 341.081 709.489 337.975 723.602 337.975C728.187 337.975 733.471 338.382 739.324 339.13C745.226 339.926 750.9 340.902 756.363 342.105Z" fill="#009999"/>
<path fill-rule="evenodd" clip-rule="evenodd" d="M104.777 342.105V364.136C93.3631 359.827 83.2177 357.649 74.3241 357.649C69.0399 357.649 64.8617 358.624 61.7073 360.51C58.5533 362.412 56.9435 364.754 56.9435 367.518C56.9435 371.192 60.553 374.46 67.7231 377.387L88.4368 387.467C105.118 395.45 113.443 406.051 113.443 419.367C113.443 430.439 109.021 439.267 100.192 445.803C91.2983 452.405 79.4782 455.672 64.6341 455.672C57.8053 455.672 51.6594 455.38 46.2127 454.762C40.766 454.177 34.5714 452.974 27.5804 451.25V428.195C40.3597 432.504 51.9523 434.682 62.3252 434.682C74.7795 434.682 80.9742 431.073 80.9742 423.789C80.9742 420.163 78.454 417.237 73.3486 414.944L50.3426 405.14C41.7903 401.303 35.4819 396.653 31.4174 391.142C27.2875 385.581 25.2715 379.208 25.2715 371.924C25.2715 361.729 29.5314 353.519 38.0671 347.275C46.5544 341.081 57.919 337.975 72.0318 337.975C76.6655 337.975 81.8847 338.382 87.8026 339.13C93.656 339.926 99.3302 340.902 104.777 342.105Z" fill="#009999"/>
<path fill-rule="evenodd" clip-rule="evenodd" d="M128.515 340.04H162.252V453.608H128.515V340.04Z" fill="#009999"/>
<path fill-rule="evenodd" clip-rule="evenodd" d="M270.942 340.04V361.03H220.816V386.215H264.292V405.14H220.816V431.577H271.966V453.608H188.347V340.04H270.942Z" fill="#009999"/>
<path fill-rule="evenodd" clip-rule="evenodd" d="M428.44 340.04V453.608H396.945V378.703L364.267 454.648H344.821L313.393 378.703V453.608H290.615V340.04H331.798L359.909 409.563L389.322 340.04H428.44Z" fill="#009999"/>
<path fill-rule="evenodd" clip-rule="evenodd" d="M537.082 340.04V361.03H487.23V386.215H530.706V405.14H487.23V431.577H538.107V453.608H454.488V340.04H537.082Z" fill="#009999"/>
<path fill-rule="evenodd" clip-rule="evenodd" d="M655.461 340.04V453.608H619.676L579.519 380.768V453.608H556.755V340.04H593.582L632.701 411.628V340.04H655.461Z" fill="#009999"/>
</svg>
